<?xml version="1.0" encoding="UTF-8" standalone="no"?>
<svg
   width="429.33707pt"
   height="843.33008pt"
   viewBox="0 0 429.33707 843.33008"
   overflow="visible"
   version="1.1"
   id="svg109"
   sodipodi:docname="AT_A.svg"
   inkscape:version="1.3.2 (091e20e, 2023-11-25)"
   xmlns:inkscape="http://www.inkscape.org/namespaces/inkscape"
   xmlns:sodipodi="http://sodipodi.sourceforge.net/DTD/sodipodi-0.dtd"
   xmlns="http://www.w3.org/2000/svg"
   xmlns:svg="http://www.w3.org/2000/svg">
  <defs
     id="defs109" />
  <sodipodi:namedview
     id="namedview109"
     pagecolor="#ffffff"
     bordercolor="#000000"
     borderopacity="0.25"
     inkscape:showpageshadow="2"
     inkscape:pageopacity="0.0"
     inkscape:pagecheckerboard="0"
     inkscape:deskcolor="#d1d1d1"
     inkscape:document-units="pt"
     showguides="true"
     inkscape:zoom="0.31786133"
     inkscape:cx="-311.45657"
     inkscape:cy="396.39927"
     inkscape:window-width="1680"
     inkscape:window-height="1005"
     inkscape:window-x="0"
     inkscape:window-y="23"
     inkscape:window-maximized="1"
     inkscape:current-layer="svg109" />
  <g
     id="g109"
     style="display:inline"
     inkscape:label="AT_A_01"
     transform="translate(-543.3748,108.23385)">
    <path
       d="m 737.93515,137.52299 v 97.20485 l 234.40171,0.005 V 47.219578 -102.60609 H 640.84225 v -5.25276 H 543.7498 v 245.50107 l 97.09245,-0.11923 z"
       stroke="#000000"
       stroke-width="3.41295"
       fill-opacity="0"
       id="path1"
       style="display:inline;fill:none;stroke-width:0.75;stroke-dasharray:none" />
    <path
       d="m 640.84225,334.59752 47.19288,56.8679 h -47.19288 z"
       stroke="#000000"
       stroke-width="3.41295"
       fill-opacity="0"
       id="path2"
       style="display:inline;fill:none;stroke-width:0.75;stroke-dasharray:none" />
    <path
       d="M 683.83993,234.7333 H 543.7498 V 488.55604 611.00897 H 870.22465 L 972.33686,734.05711 V 584.25965 391.46542 H 813.20567 Z"
       stroke="#000000"
       stroke-width="3.41295"
       fill-opacity="0"
       id="path3"
       style="display:inline;fill:none;stroke-width:0.75;stroke-dasharray:none" />
  </g>
  <g
     id="g110"
     style="display:inline"
     inkscape:label="AT_A_02"
     transform="translate(-543.3748,108.23385)">
    <path
       d="m 737.93515,137.52299 v 97.20485 l 234.40171,0.005 V 58.037718 -91.846662 H 640.84225 V -107.85885 H 543.7498 v 245.50107 l 97.09245,-0.11923 z"
       stroke="#000000"
       stroke-width="3.41295"
       fill-opacity="0"
       id="path4"
       style="display:inline;fill:none;stroke-width:0.75;stroke-dasharray:none" />
    <path
       d="m 640.84225,334.59752 47.19333,56.8679 h -47.19333 z"
       stroke="#000000"
       stroke-width="3.41295"
       fill-opacity="0"
       id="path5"
       style="display:inline;fill:none;stroke-width:0.75;stroke-dasharray:none" />
    <path
       d="M 683.83993,234.7333 H 543.7498 V 488.55604 611.00897 H 870.22465 L 972.33686,734.05711 V 584.25965 391.46542 H 813.20612 Z"
       stroke="#000000"
       stroke-width="3.41295"
       fill-opacity="0"
       id="path6"
       style="display:inline;fill:none;stroke-width:0.75;stroke-dasharray:none" />
  </g>
  <g
     id="g111"
     style="display:inline"
     inkscape:label="AT_A_03"
     transform="translate(-543.3748,108.23385)">
    <path
       d="m 737.93515,137.52299 v 97.20485 l 234.40171,0.005 V 68.855398 -81.086772 H 640.84225 V -107.85885 H 543.7498 v 245.50107 l 97.09245,-0.11923 z"
       stroke="#000000"
       stroke-width="3.41295"
       fill-opacity="0"
       id="path7"
       style="display:inline;fill:none;stroke-width:0.75;stroke-dasharray:none" />
    <path
       d="m 640.84225,334.59752 47.19333,56.86835 h -47.19333 z"
       stroke="#000000"
       stroke-width="3.41295"
       fill-opacity="0"
       id="path8"
       style="display:inline;fill:none;stroke-width:0.75;stroke-dasharray:none" />
    <path
       d="M 683.83993,234.7333 H 543.7498 V 488.55604 611.00897 H 870.22465 L 972.33686,734.05711 V 584.25965 391.46587 H 813.20612 Z"
       stroke="#000000"
       stroke-width="3.41295"
       fill-opacity="0"
       id="path9"
       style="display:inline;fill:none;stroke-width:0.75;stroke-dasharray:none" />
  </g>
  <g
     id="g112"
     inkscape:label="AT_A_04"
     style="display:inline"
     transform="translate(-543.3748,108.23385)">
    <path
       d="m 737.93515,137.52299 v 97.20485 l 234.40171,0.005 V 79.673068 -70.327342 H 640.84225 V -107.85885 H 543.7498 v 245.50107 l 97.09245,-0.11923 z"
       stroke="#000000"
       stroke-width="3.41295"
       fill-opacity="0"
       id="path10"
       style="display:inline;fill:none;stroke-width:0.75;stroke-dasharray:none" />
    <path
       d="m 640.84225,334.59752 47.19333,56.86835 h -47.19333 z"
       stroke="#000000"
       stroke-width="3.41295"
       fill-opacity="0"
       id="path11"
       style="display:inline;fill:none;stroke-width:0.75;stroke-dasharray:none" />
    <path
       d="M 683.83993,234.7333 H 543.7498 V 488.55604 611.00897 H 870.22465 L 972.33686,734.05711 V 584.25965 391.46587 H 813.20612 Z"
       stroke="#000000"
       stroke-width="3.41295"
       fill-opacity="0"
       id="path12"
       style="display:inline;fill:none;stroke-width:0.75;stroke-dasharray:none" />
  </g>
  <g
     id="g113"
     style="display:inline"
     inkscape:label="AT_A_05"
     transform="translate(-543.3748,108.23385)">
    <path
       d="m 737.93515,137.52299 v 97.20485 l 234.40171,0.005 V 90.490748 -59.567912 H 640.84225 V -107.85885 H 543.7498 v 245.50107 l 97.09245,-0.11923 z"
       stroke="#000000"
       stroke-width="3.41295"
       fill-opacity="0"
       id="path13"
       style="display:inline;fill:none;stroke-width:0.75;stroke-dasharray:none" />
    <path
       d="m 640.84225,334.59752 47.19379,56.86835 h -47.19379 z"
       stroke="#000000"
       stroke-width="3.41295"
       fill-opacity="0"
       id="path14"
       style="display:inline;fill:none;stroke-width:0.75;stroke-dasharray:none" />
    <path
       d="M 683.83993,234.7333 H 543.7498 V 488.55604 611.00897 H 870.22465 L 972.33686,734.05711 V 584.25965 391.46587 H 813.20658 Z"
       stroke="#000000"
       stroke-width="3.41295"
       fill-opacity="0"
       id="path15"
       style="display:inline;fill:none;stroke-width:0.75;stroke-dasharray:none" />
  </g>
  <g
     id="g114"
     style="display:inline"
     inkscape:label="AT_A_06"
     transform="translate(-543.3748,108.23385)">
    <path
       d="m 737.93515,137.52299 v 97.20485 l 234.40171,0.005 V 101.30843 -48.808022 H 640.84225 V -107.85885 H 543.7498 v 245.50107 l 97.09245,-0.11923 z"
       stroke="#000000"
       stroke-width="3.41295"
       fill-opacity="0"
       id="path16"
       style="display:inline;fill:none;stroke-width:0.75;stroke-dasharray:none" />
    <path
       d="m 640.84225,334.59752 47.19379,56.86881 h -47.19379 z"
       stroke="#000000"
       stroke-width="3.41295"
       fill-opacity="0"
       id="path17"
       style="display:inline;fill:none;stroke-width:0.75;stroke-dasharray:none" />
    <path
       d="M 683.83993,234.7333 H 543.7498 V 488.55604 611.00897 H 870.22465 L 972.33686,734.05711 V 584.25965 391.46633 H 813.20658 Z"
       stroke="#000000"
       stroke-width="3.41295"
       fill-opacity="0"
       id="path18"
       style="display:inline;fill:none;stroke-width:0.75;stroke-dasharray:none" />
  </g>
  <g
     id="g115"
     style="display:inline"
     inkscape:label="AT_A_07"
     transform="translate(-543.3748,108.23385)">
    <path
       d="m 737.93515,137.52299 v 97.20485 l 234.40171,0.005 V 112.12611 -38.048592 H 640.84225 V -107.85885 H 543.7498 v 245.50107 l 97.09245,-0.11923 z"
       stroke="#000000"
       stroke-width="3.41295"
       fill-opacity="0"
       id="path19"
       style="display:inline;fill:none;stroke-width:0.75;stroke-dasharray:none" />
    <path
       d="m 640.84225,334.59752 47.19379,56.86881 h -47.19379 z"
       stroke="#000000"
       stroke-width="3.41295"
       fill-opacity="0"
       id="path20"
       style="display:inline;fill:none;stroke-width:0.75;stroke-dasharray:none" />
    <path
       d="M 683.83993,234.7333 H 543.7498 V 488.55604 611.00897 H 870.22465 L 972.33686,734.05711 V 584.25965 391.46633 H 813.20658 Z"
       stroke="#000000"
       stroke-width="3.41295"
       fill-opacity="0"
       id="path21"
       style="display:inline;fill:none;stroke-width:0.75;stroke-dasharray:none" />
  </g>
  <g
     id="g116"
     style="display:inline"
     inkscape:label="AT_A_08"
     transform="translate(-543.3748,108.23385)">
    <path
       d="m 737.93515,137.52299 v 97.20485 l 234.40171,0.005 V 122.94425 -27.288712 H 640.84225 V -107.85885 H 543.7498 v 245.50107 l 97.09245,-0.11923 z"
       stroke="#000000"
       stroke-width="3.41295"
       fill-opacity="0"
       id="path22"
       style="display:inline;fill:none;stroke-width:0.75;stroke-dasharray:none" />
    <path
       d="m 640.84225,334.59752 47.19424,56.86926 h -47.19424 z"
       stroke="#000000"
       stroke-width="3.41295"
       fill-opacity="0"
       id="path23"
       style="display:inline;fill:none;stroke-width:0.75;stroke-dasharray:none" />
    <path
       d="M 683.83993,234.7333 H 543.7498 V 488.55604 611.00897 H 870.22465 L 972.33686,734.05711 V 584.25965 391.46678 H 813.20703 Z"
       stroke="#000000"
       stroke-width="3.41295"
       fill-opacity="0"
       id="path24"
       style="display:inline;fill:none;stroke-width:0.75;stroke-dasharray:none" />
  </g>
  <g
     id="g117"
     style="display:inline"
     inkscape:label="AT_A_09"
     transform="translate(-543.3748,108.23385)">
    <path
       d="m 737.93515,137.52299 v 97.20485 l 234.40171,0.005 V 133.76192 -16.529282 H 640.84225 V -107.85885 H 543.7498 v 245.50107 l 97.09245,-0.11923 z"
       stroke="#000000"
       stroke-width="3.41295"
       fill-opacity="0"
       id="path25"
       style="display:inline;fill:none;stroke-width:0.75;stroke-dasharray:none" />
    <path
       d="m 640.84225,334.59752 47.19424,56.86926 h -47.19424 z"
       stroke="#000000"
       stroke-width="3.41295"
       fill-opacity="0"
       id="path26"
       style="display:inline;fill:none;stroke-width:0.75;stroke-dasharray:none" />
    <path
       d="M 683.83993,234.7333 H 543.7498 V 488.55604 611.00897 H 870.22465 L 972.33686,734.05711 V 584.25965 391.46678 H 813.20703 Z"
       stroke="#000000"
       stroke-width="3.41295"
       fill-opacity="0"
       id="path27"
       style="display:inline;fill:none;stroke-width:0.75;stroke-dasharray:none" />
  </g>
  <g
     id="g118"
     style="display:inline"
     inkscape:label="AT_A_10"
     transform="translate(-543.3748,108.23385)">
    <path
       d="m 737.93515,144.5796 v 90.14824 l 234.40171,0.005 V 144.5796 -5.769842 H 640.84225 V -107.85885 H 543.7498 v 245.50107 6.93738 z"
       stroke="#000000"
       stroke-width="3.41295"
       fill-opacity="0"
       id="path28"
       style="display:inline;fill:none;stroke-width:0.75;stroke-dasharray:none" />
    <path
       d="m 640.84225,334.59752 47.19424,56.86926 h -47.19424 z"
       stroke="#000000"
       stroke-width="3.41295"
       fill-opacity="0"
       id="path29"
       style="display:inline;fill:none;stroke-width:0.75;stroke-dasharray:none" />
    <path
       d="M 683.83993,234.7333 H 543.7498 V 488.55604 611.00897 H 870.22465 L 972.33686,734.05711 V 584.25965 391.46678 H 813.20703 Z"
       stroke="#000000"
       stroke-width="3.41295"
       fill-opacity="0"
       id="path30"
       style="display:inline;fill:none;stroke-width:0.75;stroke-dasharray:none" />
  </g>
  <g
     id="g119"
     style="display:inline"
     inkscape:label="AT_A_11"
     transform="translate(-543.3748,108.23385)">
    <path
       d="m 737.93515,155.39728 v 79.33056 l 234.40171,0.005 V 155.39728 4.990038 H 640.84225 V -107.85885 H 543.7498 v 245.50107 17.75506 z"
       stroke="#000000"
       stroke-width="3.41295"
       fill-opacity="0"
       id="path31"
       style="display:inline;fill:none;stroke-width:0.75;stroke-dasharray:none" />
    <path
       d="m 640.84225,334.59752 47.1947,56.86972 h -47.1947 z"
       stroke="#000000"
       stroke-width="3.41295"
       fill-opacity="0"
       id="path32"
       style="display:inline;fill:none;stroke-width:0.75;stroke-dasharray:none" />
    <path
       d="M 683.83993,234.7333 H 543.7498 V 488.55604 611.00897 H 870.22465 L 972.33686,734.05711 V 584.25965 391.46724 H 813.20749 Z"
       stroke="#000000"
       stroke-width="3.41295"
       fill-opacity="0"
       id="path33"
       style="display:inline;fill:none;stroke-width:0.75;stroke-dasharray:none" />
  </g>
  <g
     id="g120"
     style="display:inline"
     inkscape:label="AT_A_12"
     transform="translate(-543.3748,108.23385)">
    <path
       d="m 737.93515,166.21496 v 68.51288 l 234.40171,0.005 V 166.21496 15.749468 15.189298 H 640.84225 V -107.85885 H 543.7498 v 245.50107 28.57274 z"
       stroke="#000000"
       stroke-width="3.41295"
       fill-opacity="0"
       id="path34"
       style="display:inline;fill:none;stroke-width:0.75;stroke-dasharray:none" />
    <path
       d="m 640.84225,334.59752 47.1947,56.86972 h -47.1947 z"
       stroke="#000000"
       stroke-width="3.41295"
       fill-opacity="0"
       id="path35"
       style="display:inline;fill:none;stroke-width:0.75;stroke-dasharray:none" />
    <path
       d="M 683.83993,234.7333 H 543.7498 V 488.55604 611.00897 H 870.22465 L 972.33686,734.05711 V 584.25965 391.46724 H 813.20749 Z"
       stroke="#000000"
       stroke-width="3.41295"
       fill-opacity="0"
       id="path36"
       style="display:inline;fill:none;stroke-width:0.75;stroke-dasharray:none" />
  </g>
  <g
     id="g121"
     style="display:inline"
     inkscape:label="AT_A_13"
     transform="translate(-543.3748,108.23385)">
    <path
       d="m 737.93515,177.03264 v 57.6952 l 234.40171,0.005 V 177.03264 26.508908 15.189298 H 640.84225 V -107.85885 H 543.7498 v 245.50107 39.39042 z"
       stroke="#000000"
       stroke-width="3.41295"
       fill-opacity="0"
       id="path37"
       style="display:inline;fill:none;stroke-width:0.75;stroke-dasharray:none" />
    <path
       d="m 640.84225,334.59752 47.1947,56.87017 h -47.1947 z"
       stroke="#000000"
       stroke-width="3.41295"
       fill-opacity="0"
       id="path38"
       style="display:inline;fill:none;stroke-width:0.75;stroke-dasharray:none" />
    <path
       d="M 683.83993,234.7333 H 543.7498 V 488.55604 611.00897 H 870.22465 L 972.33686,734.05711 V 584.25965 391.46769 H 813.20749 Z"
       stroke="#000000"
       stroke-width="3.41295"
       fill-opacity="0"
       id="path39"
       style="display:inline;fill:none;stroke-width:0.75;stroke-dasharray:none" />
  </g>
  <g
     id="g122"
     style="display:inline"
     inkscape:label="AT_A_14"
     transform="translate(-543.3748,108.23385)">
    <path
       d="m 737.93515,187.85078 v 46.87706 l 234.40171,0.005 V 187.85078 37.268788 15.189298 H 640.84225 V -107.85885 H 543.7498 v 245.50107 50.20856 z"
       stroke="#000000"
       stroke-width="3.41295"
       fill-opacity="0"
       id="path40"
       style="display:inline;fill:none;stroke-width:0.75;stroke-dasharray:none" />
    <path
       d="m 640.84225,334.59752 47.19515,56.87017 h -47.19515 z"
       stroke="#000000"
       stroke-width="3.41295"
       fill-opacity="0"
       id="path41"
       style="display:inline;fill:none;stroke-width:0.75;stroke-dasharray:none" />
    <path
       d="M 683.83993,234.7333 H 543.7498 V 488.55604 611.00897 H 870.22465 L 972.33686,734.05711 V 584.25965 391.46769 H 813.20794 Z"
       stroke="#000000"
       stroke-width="3.41295"
       fill-opacity="0"
       id="path42"
       style="display:inline;fill:none;stroke-width:0.75;stroke-dasharray:none" />
  </g>
  <g
     id="g123"
     style="display:inline"
     inkscape:label="AT_A_15"
     transform="translate(-543.3748,108.23385)">
    <path
       d="m 737.93515,198.66845 v 36.05939 l 234.40171,0.005 V 198.66845 48.028218 15.189298 H 640.84225 V -107.85885 H 543.7498 v 245.50107 61.02623 z"
       stroke="#000000"
       stroke-width="3.41295"
       fill-opacity="0"
       id="path43"
       style="display:inline;fill:none;stroke-width:0.75;stroke-dasharray:none" />
    <path
       d="m 640.84225,334.59752 47.19515,56.87063 h -47.19515 z"
       stroke="#000000"
       stroke-width="3.41295"
       fill-opacity="0"
       id="path44"
       style="display:inline;fill:none;stroke-width:0.75;stroke-dasharray:none" />
    <path
       d="M 683.83993,234.7333 H 543.7498 V 488.55604 611.00897 H 870.22465 L 972.33686,734.05711 V 584.25965 391.46815 H 813.20794 Z"
       stroke="#000000"
       stroke-width="3.41295"
       fill-opacity="0"
       id="path45"
       style="display:inline;fill:none;stroke-width:0.75;stroke-dasharray:none" />
  </g>
  <g
     id="g124"
     style="display:inline"
     inkscape:label="AT_A_16"
     transform="translate(-543.3748,108.23385)">
    <path
       d="m 737.93515,209.48613 v 25.24171 l 234.40171,0.005 V 209.48613 58.788108 15.189298 H 640.84225 V -107.85885 H 543.7498 v 245.50107 71.84391 z"
       stroke="#000000"
       stroke-width="3.41295"
       fill-opacity="0"
       id="path46"
       style="display:inline;fill:none;stroke-width:0.75;stroke-dasharray:none" />
    <path
       d="m 640.84225,334.59752 47.19561,56.87063 h -47.19561 z"
       stroke="#000000"
       stroke-width="3.41295"
       fill-opacity="0"
       id="path47"
       style="display:inline;fill:none;stroke-width:0.75;stroke-dasharray:none" />
    <path
       d="M 683.83993,234.7333 H 543.7498 V 488.55604 611.00897 H 870.22465 L 972.33686,734.05711 V 584.25965 391.46815 H 813.2084 Z"
       stroke="#000000"
       stroke-width="3.41295"
       fill-opacity="0"
       id="path48"
       style="display:inline;fill:none;stroke-width:0.75;stroke-dasharray:none" />
  </g>
  <g
     id="g125"
     style="display:inline"
     inkscape:label="AT_A_17"
     transform="translate(-543.3748,108.23385)">
    <path
       d="m 737.93515,220.30381 v 14.42403 l 234.40171,0.005 V 220.30381 69.547538 15.189298 H 640.84225 V -107.85885 H 543.7498 v 245.50107 82.66159 z"
       stroke="#000000"
       stroke-width="3.41295"
       fill-opacity="0"
       id="path49"
       style="display:inline;fill:none;stroke-width:0.75;stroke-dasharray:none" />
    <path
       d="m 640.84225,334.59752 47.19561,56.87063 h -47.19561 z"
       stroke="#000000"
       stroke-width="3.41295"
       fill-opacity="0"
       id="path50"
       style="display:inline;fill:none;stroke-width:0.75;stroke-dasharray:none" />
    <path
       d="M 683.83993,234.7333 H 543.7498 V 488.55604 611.00897 H 870.22465 L 972.33686,734.05711 V 584.25965 391.46815 H 813.2084 Z"
       stroke="#000000"
       stroke-width="3.41295"
       fill-opacity="0"
       id="path51"
       style="display:none;fill:none;stroke-width:0.75;stroke-dasharray:none" />
    <path
       d="M 683.83993,234.7333 H 543.7498 V 488.55604 611.00897 H 870.22465 L 972.33686,734.05711 V 584.25965 391.46496 H 813.20567 Z"
       stroke="#000000"
       stroke-width="3.41295"
       fill-opacity="0"
       id="path109"
       style="display:inline;fill:none;stroke-width:0.75;stroke-dasharray:none" />
  </g>
  <g
     id="g126"
     style="display:inline"
     inkscape:label="AT_A_18"
     transform="translate(-543.3748,108.23385)">
    <path
       d="m 737.93515,231.12149 v 3.60635 l 234.40171,0.005 V 231.12149 80.306968 15.189298 H 640.84225 V -107.85885 H 543.7498 v 245.50107 93.47927 z"
       stroke="#000000"
       stroke-width="3.41295"
       fill-opacity="0"
       id="path52"
       style="display:none;fill:none;stroke-width:0.75;stroke-dasharray:none" />
    <path
       d="m 640.84225,334.59752 47.19561,56.87108 h -47.19561 z"
       stroke="#000000"
       stroke-width="3.41295"
       fill-opacity="0"
       id="path53"
       style="display:none;fill:none;stroke-width:0.75;stroke-dasharray:none" />
    <path
       d="M 689.78802,241.93917 H 972.33686 V 91.066858 15.189298 H 640.84225 V -107.85885 H 543.7498 V 137.64222 234.7333 488.55604 611.00897 H 870.22465 L 972.33686,734.05711 V 584.25965 391.4686 H 813.2084 Z"
       stroke="#000000"
       stroke-width="3.41295"
       fill-opacity="0"
       id="path54"
       style="display:inline;fill:none;stroke-width:0.75;stroke-dasharray:none" />
    <path
       d="m 640.84225,334.59752 47.19288,56.86744 h -47.19288 z"
       stroke="#000000"
       stroke-width="3.41295"
       fill-opacity="0"
       id="path108"
       style="display:inline;fill:none;stroke-width:0.75;stroke-dasharray:none" />
  </g>
  <g
     id="g127"
     style="display:inline"
     inkscape:label="AT_A_19"
     transform="translate(-543.3748,108.23385)">
    <path
       d="m 640.84225,334.59752 47.19606,56.87108 h -47.19606 z"
       stroke="#000000"
       stroke-width="3.41295"
       fill-opacity="0"
       id="path55"
       style="display:inline;fill:none;stroke-width:0.75;stroke-dasharray:none" />
    <path
       d="M 698.7172,252.7573 H 972.33686 V 101.82629 15.189298 H 640.84225 V -107.85885 H 543.7498 V 137.64222 234.7333 488.55604 611.00897 H 870.22465 L 972.33686,734.05711 V 584.25965 391.4686 H 813.20885 Z"
       stroke="#000000"
       stroke-width="3.41295"
       fill-opacity="0"
       id="path56"
       style="display:inline;fill:none;stroke-width:0.75;stroke-dasharray:none" />
  </g>
  <g
     id="g128"
     style="display:inline"
     inkscape:label="AT_A_20"
     transform="translate(-543.3748,108.23385)">
    <path
       d="m 640.84225,334.59752 47.19606,56.87154 h -47.19606 z"
       stroke="#000000"
       stroke-width="3.41295"
       fill-opacity="0"
       id="path57"
       style="display:inline;fill:none;stroke-width:0.75;stroke-dasharray:none" />
    <path
       d="M 707.64592,263.57498 H 972.33686 V 112.58618 15.189298 H 640.84225 V -107.85885 H 543.7498 V 137.64222 234.7333 488.55604 611.00897 H 870.22465 L 972.33686,734.05711 V 584.25965 391.46906 H 813.20885 Z"
       stroke="#000000"
       stroke-width="3.41295"
       fill-opacity="0"
       id="path58"
       style="display:inline;fill:none;stroke-width:0.75;stroke-dasharray:none" />
  </g>
  <g
     id="g129"
     style="display:inline"
     inkscape:label="AT_A_21"
     transform="translate(-543.3748,108.23385)">
    <path
       d="m 640.84225,334.59752 47.19606,56.87154 h -47.19606 z"
       stroke="#000000"
       stroke-width="3.41295"
       fill-opacity="0"
       id="path59"
       style="display:inline;fill:none;stroke-width:0.75;stroke-dasharray:none" />
    <path
       d="M 716.57465,274.39266 H 972.33686 V 123.34561 15.189298 H 640.84225 V -107.85885 H 543.7498 V 137.64222 234.7333 488.55604 611.00897 H 870.22465 L 972.33686,734.05711 V 584.25965 391.46906 H 813.20885 Z"
       stroke="#000000"
       stroke-width="3.41295"
       fill-opacity="0"
       id="path60"
       style="display:inline;fill:none;stroke-width:0.75;stroke-dasharray:none" />
  </g>
  <g
     id="g130"
     style="display:inline"
     inkscape:label="AT_A_22"
     transform="translate(-543.3748,108.23385)">
    <path
       d="m 640.84225,334.59752 47.19652,56.87154 h -47.19652 z"
       stroke="#000000"
       stroke-width="3.41295"
       fill-opacity="0"
       id="path61"
       style="display:inline;fill:none;stroke-width:0.75;stroke-dasharray:none" />
    <path
       d="M 725.50383,285.21034 H 972.33686 V 134.10504 15.189298 H 640.84225 V -107.85885 H 543.7498 V 137.64222 234.7333 488.55604 611.00897 H 870.22465 L 972.33686,734.05711 V 584.25965 391.46906 H 813.20885 Z"
       stroke="#000000"
       stroke-width="3.41295"
       fill-opacity="0"
       id="path62"
       style="display:inline;fill:none;stroke-width:0.75;stroke-dasharray:none" />
  </g>
  <g
     id="g131"
     style="display:inline"
     inkscape:label="AT_A_23"
     transform="translate(-543.3748,108.23385)">
    <path
       d="m 640.84225,334.59752 47.19652,56.87199 h -47.19652 z"
       stroke="#000000"
       stroke-width="3.41295"
       fill-opacity="0"
       id="path63"
       style="display:inline;fill:none;stroke-width:0.75;stroke-dasharray:none" />
    <path
       d="m 734.43256,296.02802 h 237.9043 V 144.86493 15.189298 H 640.84225 V -107.85885 H 543.7498 v 245.50107 l 97.09245,-0.11923 h 97.0929 v 7.34194 H 543.7498 V 234.7333 488.55604 611.00897 H 870.22465 L 972.33686,734.05711 V 584.25965 391.46951 H 813.20931 Z"
       stroke="#000000"
       stroke-width="3.41295"
       fill-opacity="0"
       id="path64"
       style="display:inline;fill:none;stroke-width:0.75;stroke-dasharray:none" />
  </g>
  <g
     id="g132"
     style="display:inline"
     inkscape:label="AT_A_24"
     transform="translate(-543.3748,108.23385)">
    <path
       d="m 640.84225,334.59752 47.19652,56.87199 h -47.19652 z"
       stroke="#000000"
       stroke-width="3.41295"
       fill-opacity="0"
       id="path65"
       style="display:inline;fill:none;stroke-width:0.75;stroke-dasharray:none" />
    <path
       d="M 743.36174,306.8457 H 972.33686 V 155.62436 15.189298 H 640.84225 V -107.85885 H 543.7498 v 245.50107 l 97.09245,-0.11923 h 97.0929 v 18.10137 H 543.7498 V 234.7333 488.55604 611.00897 H 870.22465 L 972.33686,734.05711 V 584.25965 391.46951 H 813.20931 Z"
       stroke="#000000"
       stroke-width="3.41295"
       fill-opacity="0"
       id="path66"
       style="display:inline;fill:none;stroke-width:0.75;stroke-dasharray:none" />
  </g>
  <g
     id="g133"
     style="display:inline"
     inkscape:label="AT_A_25"
     transform="translate(-543.3748,108.23385)">
    <path
       d="m 640.84225,334.59752 47.19697,56.87245 h -47.19697 z"
       stroke="#000000"
       stroke-width="3.41295"
       fill-opacity="0"
       id="path67"
       style="display:inline;fill:none;stroke-width:0.75;stroke-dasharray:none" />
    <path
       d="M 752.29047,317.66383 H 972.33686 V 166.38379 15.189298 H 640.84225 V -107.85885 H 543.7498 v 245.50107 l 97.09245,-0.11923 h 97.0929 v 28.8608 H 543.7498 V 234.7333 488.55604 611.00897 H 870.22465 L 972.33686,734.05711 V 584.25965 391.46997 h -159.1271 z"
       stroke="#000000"
       stroke-width="3.41295"
       fill-opacity="0"
       id="path68"
       style="display:inline;fill:none;stroke-width:0.75;stroke-dasharray:none" />
  </g>
  <g
     id="g134"
     style="display:inline"
     inkscape:label="AT_A_26"
     transform="translate(-543.3748,108.23385)">
    <path
       d="M 761.21919,328.48151 H 972.33686 V 177.14368 15.189298 H 640.84225 V -107.85885 H 543.7498 v 245.50107 l 97.09245,-0.11923 h 97.0929 v 39.62069 H 543.7498 v 57.58962 253.82274 h 97.09245 V 334.59752 l 65.6592,79.1194 62.20393,74.95789 H 543.7498 V 611.00897 H 870.22465 L 972.33686,734.05711 V 584.25965 488.67481 h -78.89461 z"
       stroke="#000000"
       stroke-width="3.41295"
       fill-opacity="0"
       id="path69"
       style="display:inline;fill:none;stroke-width:0.75;stroke-dasharray:none" />
  </g>
  <g
     id="g135"
     style="display:inline"
     inkscape:label="AT_A_27"
     transform="translate(-543.3748,108.23385)">
    <path
       d="M 770.14837,339.29919 H 972.33686 V 187.90311 15.189298 H 640.84225 V -107.85885 H 543.7498 v 245.50107 l 97.09245,-0.11923 h 97.0929 v 50.38012 H 543.7498 v 46.83019 253.82274 h 97.09245 V 339.29919 h 3.90168 l 61.75752,74.41773 62.20393,74.95789 H 543.7498 V 611.00897 H 870.22465 L 972.33686,734.05711 V 584.25965 488.67481 h -78.89461 z"
       stroke="#000000"
       stroke-width="3.41295"
       fill-opacity="0"
       id="path70"
       style="display:inline;fill:none;stroke-width:0.75;stroke-dasharray:none" />
  </g>
  <g
     id="g136"
     style="display:inline"
     inkscape:label="AT_A_28"
     transform="translate(-543.3748,108.23385)">
    <path
       d="M 779.0771,350.11687 H 972.33686 V 198.66299 15.189298 H 640.84225 V -107.85885 H 543.7498 v 245.50107 l 97.09245,-0.11923 h 97.0929 v 61.14 H 543.7498 v 36.07031 253.82274 h 97.09245 V 350.11687 h 12.8791 l 52.7801,63.60005 62.20393,74.95789 H 543.7498 V 611.00897 H 870.22465 L 972.33686,734.05711 V 584.25965 488.67481 h -78.89461 z"
       stroke="#000000"
       stroke-width="3.41295"
       fill-opacity="0"
       id="path71"
       style="display:inline;fill:none;stroke-width:0.75;stroke-dasharray:none" />
  </g>
  <g
     id="g137"
     style="display:inline"
     inkscape:label="AT_A_29"
     transform="translate(-543.3748,108.23385)">
    <path
       d="M 788.00628,360.93455 H 972.33686 V 209.42242 15.189298 H 640.84225 V -107.85885 H 543.7498 v 245.50107 l 97.09245,-0.11923 h 97.0929 v 71.89943 H 543.7498 v 25.31088 253.82274 h 97.09245 V 360.93455 h 21.85652 l 43.80268,52.78237 62.20393,74.95789 H 543.7498 V 611.00897 H 870.22465 L 972.33686,734.05711 V 584.25965 488.67481 h -78.89461 z"
       stroke="#000000"
       stroke-width="3.41295"
       fill-opacity="0"
       id="path72"
       style="display:inline;fill:none;stroke-width:0.75;stroke-dasharray:none" />
  </g>
  <g
     id="g138"
     style="display:inline"
     inkscape:label="AT_A_30"
     transform="translate(-543.3748,108.23385)">
    <path
       d="M 796.93501,371.75223 H 972.33686 V 220.18186 15.189298 H 640.84225 V -107.85885 H 543.7498 v 245.50107 l 97.09245,-0.11923 h 97.0929 v 82.65887 H 543.7498 v 14.55144 253.82274 h 97.09245 V 371.75223 h 30.83394 l 34.82526,41.96469 62.20393,74.95789 H 543.7498 V 611.00897 H 870.22465 L 972.33686,734.05711 V 584.25965 488.67481 h -78.89461 z"
       stroke="#000000"
       stroke-width="3.41295"
       fill-opacity="0"
       id="path73"
       style="display:inline;fill:none;stroke-width:0.75;stroke-dasharray:none" />
  </g>
  <g
     id="g139"
     style="display:inline"
     inkscape:label="AT_A_31"
     transform="translate(-543.3748,108.23385)">
    <path
       d="M 805.86373,382.57036 H 972.33686 V 230.94129 15.189298 H 640.84225 V -107.85885 H 543.7498 v 245.50107 l 97.09245,-0.11923 h 97.0929 v 93.4183 H 543.7498 v 3.79201 253.82274 h 97.09245 V 382.57036 h 39.81135 l 25.84785,31.14656 62.20393,74.95789 H 543.7498 V 611.00897 H 870.22465 L 972.33686,734.05711 V 584.25965 488.67481 h -78.89461 z"
       stroke="#000000"
       stroke-width="3.41295"
       fill-opacity="0"
       id="path74"
       style="display:inline;fill:none;stroke-width:0.75;stroke-dasharray:none" />
  </g>
  <g
     id="g140"
     style="display:inline"
     inkscape:label="AT_A_32"
     transform="translate(-543.3748,108.23385)">
    <path
       d="M 683.83993,234.7333 H 543.7498 v 253.82274 h 97.09245 v -97.09108 h 47.19288 l 18.46632,22.25196 62.20393,74.95789 H 543.7498 V 611.00897 H 870.22465 L 972.33686,734.05711 V 584.25965 488.67481 H 893.44225 L 813.20567,391.46496 H 972.33686 V 241.70072 H 689.59098 Z"
       stroke="#000000"
       stroke-width="3.41295"
       fill-opacity="0"
       id="path75"
       style="display:inline;fill:none;stroke-width:0.75;stroke-dasharray:none" />
    <path
       d="m 737.93515,137.52299 v 97.20485 l 234.40171,0.005 V 15.188838 H 640.84225 V -107.85885 H 543.7498 v 245.50107 l 97.09245,-0.11923 z"
       stroke="#000000"
       stroke-width="3.41295"
       fill-opacity="0"
       id="path76"
       style="display:inline;fill:none;stroke-width:0.75;stroke-dasharray:none" />
  </g>
  <g
     id="g141"
     style="display:inline"
     inkscape:label="AT_A_33"
     transform="translate(-543.3748,108.23385)">
    <path
       d="M 683.83993,234.7333 H 543.7498 v 253.82274 h 97.09245 v -97.09108 h 47.19288 l 18.46632,22.25196 62.20393,74.95789 H 543.7498 V 611.00897 H 870.22465 L 972.33686,734.05711 V 584.25965 488.67481 H 893.44225 L 813.20567,391.46496 H 972.33686 V 252.4597 H 698.47192 Z"
       stroke="#000000"
       stroke-width="3.41295"
       fill-opacity="0"
       id="path77"
       style="display:inline;fill:none;stroke-width:0.75;stroke-dasharray:none"
       inkscape:label="path77" />
    <path
       d="m 737.93515,137.52299 v 97.20485 l 234.40171,0.005 V 15.188838 H 640.84225 V -107.85885 H 543.7498 v 245.50107 l 97.09245,-0.11923 z"
       stroke="#000000"
       stroke-width="3.41295"
       fill-opacity="0"
       id="path78"
       style="display:inline;fill:none;stroke-width:0.75;stroke-dasharray:none" />
  </g>
  <g
     id="g142"
     style="display:inline"
     inkscape:label="AT_A_34"
     transform="translate(-543.3748,108.23385)">
    <path
       d="M 683.83993,234.7333 H 543.7498 v 253.82274 h 97.09245 v -97.09108 h 47.19288 l 18.46632,22.25196 62.20393,74.95789 H 543.7498 V 611.00897 H 870.22465 L 972.33686,734.05711 V 584.25965 488.67481 H 893.44225 L 813.20567,391.46496 H 972.33686 V 263.21913 H 707.35241 Z"
       stroke="#000000"
       stroke-width="3.41295"
       fill-opacity="0"
       id="path79"
       style="display:inline;fill:none;stroke-width:0.75;stroke-dasharray:none" />
    <path
       d="m 737.93515,137.52299 v 97.20485 l 234.40171,0.005 V 15.188838 H 640.84225 V -107.85885 H 543.7498 v 245.50107 l 97.09245,-0.11923 z"
       stroke="#000000"
       stroke-width="3.41295"
       fill-opacity="0"
       id="path80"
       style="display:inline;fill:none;stroke-width:0.75;stroke-dasharray:none" />
  </g>
  <g
     id="g143"
     style="display:inline"
     inkscape:label="AT_A_35"
     transform="translate(-543.3748,108.23385)">
    <path
       d="M 683.83993,234.7333 H 543.7498 v 253.82274 h 97.09245 v -97.09108 h 47.19288 l 18.46632,22.25196 62.20393,74.95789 H 543.7498 V 611.00897 H 870.22465 L 972.33686,734.05711 V 584.25965 488.67481 h -78.89461 l -80.23658,-97.20985 h 159.13119 v -117.4864 h -256.1035 z"
       stroke="#000000"
       stroke-width="3.41295"
       fill-opacity="0"
       id="path81"
       style="display:inline;fill:none;stroke-width:0.75;stroke-dasharray:none" />
    <path
       d="m 737.93515,137.52299 v 97.20485 l 234.40171,0.005 V 15.188838 H 640.84225 V -107.85885 H 543.7498 v 245.50107 l 97.09245,-0.11923 z"
       stroke="#000000"
       stroke-width="3.41295"
       fill-opacity="0"
       id="path82"
       style="display:inline;fill:none;stroke-width:0.75;stroke-dasharray:none" />
  </g>
  <g
     id="g144"
     style="display:inline"
     inkscape:label="AT_A_36"
     transform="translate(-543.3748,108.23385)">
    <path
       d="M 683.83993,234.7333 H 543.7498 v 253.82274 h 97.09245 v -97.09108 h 47.19288 l 18.46632,22.25196 62.20393,74.95789 H 543.7498 V 611.00897 H 870.22465 L 972.33686,734.05711 V 584.25965 488.67481 H 893.44225 L 813.20567,391.46496 H 972.33686 V 284.73799 H 725.11385 Z"
       stroke="#000000"
       stroke-width="3.41295"
       fill-opacity="0"
       id="path83"
       style="display:inline;fill:none;stroke-width:0.75;stroke-dasharray:none" />
    <path
       d="m 737.93515,137.52299 v 97.20485 l 234.40171,0.005 V 15.188838 H 640.84225 V -107.85885 H 543.7498 v 245.50107 l 97.09245,-0.11923 h 97.0929 v 0.11923 H 543.7498 l 97.09245,-0.11923 z"
       stroke="#000000"
       stroke-width="3.41295"
       fill-opacity="0"
       id="path84"
       style="display:inline;fill:none;stroke-width:0.75;stroke-dasharray:none" />
  </g>
  <g
     id="g145"
     style="display:inline"
     inkscape:label="AT_A_37"
     transform="translate(-543.3748,108.23385)">
    <path
       d="M 893.43861,488.67117 813.20567,391.46496 H 972.33686 V 234.7333 15.189298 H 640.84225 V -107.85885 H 543.7498 v 245.50107 97.09108 253.82274 h 97.09245 v -97.09108 h 47.19288 l 18.46632,22.25196 62.20074,74.95425 H 543.7498 V 734.05711 H 972.33686 V 584.25965 488.67117 Z"
       stroke="#000000"
       stroke-width="3.41295"
       fill-opacity="0"
       id="path85"
       style="display:inline;fill:none;stroke-width:0.75;stroke-dasharray:none" />
    <path
       d="m 737.93515,137.52299 v 0.11923 H 543.7498 l 97.09245,-0.11923 z"
       stroke="#000000"
       stroke-width="3.41295"
       fill-opacity="0"
       id="path86"
       style="display:inline;fill:none;stroke-width:0.75;stroke-dasharray:none" />
  </g>
  <g
     id="g146"
     style="display:inline"
     inkscape:label="AT_A_38"
     transform="translate(-543.3748,108.23385)">
    <path
       d="M 893.42951,488.6598 813.20567,391.46496 H 972.33686 V 234.7333 15.189298 H 640.84225 V -107.85885 H 543.7498 v 245.50107 97.09108 253.82274 h 97.09245 v -97.09108 h 47.19288 l 18.46632,22.25196 62.19164,74.94288 H 543.7498 V 734.05711 H 972.33686 V 584.25965 488.6598 Z"
       stroke="#000000"
       stroke-width="3.41295"
       fill-opacity="0"
       id="path87"
       style="display:inline;fill:none;stroke-width:0.75;stroke-dasharray:none" />
    <path
       d="m 737.93515,137.52299 v 0.11923 H 543.7498 l 97.09245,-0.11923 z"
       stroke="#000000"
       stroke-width="3.41295"
       fill-opacity="0"
       id="path88"
       style="display:inline;fill:none;stroke-width:0.75;stroke-dasharray:none" />
  </g>
  <g
     id="g147"
     style="display:inline"
     inkscape:label="AT_A_39"
     transform="translate(-543.3748,108.23385)">
    <path
       d="M 893.42086,488.64933 813.20567,391.46496 H 972.33686 V 234.7333 15.189298 H 640.84225 V -107.85885 H 543.7498 v 245.50107 97.09108 253.82274 h 97.09245 v -97.09108 h 47.19288 l 18.46632,22.25196 62.18254,74.93241 H 543.7498 V 734.05711 H 972.33686 V 584.25965 488.64933 Z"
       stroke="#000000"
       stroke-width="3.41295"
       fill-opacity="0"
       id="path89"
       style="display:inline;fill:none;stroke-width:0.75;stroke-dasharray:none" />
    <path
       d="m 737.93515,137.52299 v 0.11923 H 543.7498 l 97.09245,-0.11923 z"
       stroke="#000000"
       stroke-width="3.41295"
       fill-opacity="0"
       id="path90"
       style="display:inline;fill:none;stroke-width:0.75;stroke-dasharray:none" />
  </g>
  <g
     id="g148"
     style="display:inline"
     inkscape:label="AT_A_40"
     transform="translate(-543.3748,108.23385)">
    <path
       d="M 893.41176,488.63795 813.20567,391.46496 H 972.33686 V 234.7333 15.189298 H 640.84225 V -107.85885 H 543.7498 v 245.50107 97.09108 253.82274 h 97.09245 v -97.09108 h 47.19288 l 18.46632,22.25196 62.17344,74.92103 H 543.7498 v 245.41916 h 428.58706 v -149.79746 -95.6217 z"
       stroke="#000000"
       stroke-width="3.41295"
       fill-opacity="0"
       id="path91"
       style="display:inline;fill:none;stroke-width:0.75;stroke-dasharray:none" />
    <path
       d="m 737.93515,137.52299 v 0.11923 H 543.7498 l 97.09245,-0.11923 z"
       stroke="#000000"
       stroke-width="3.41295"
       fill-opacity="0"
       id="path92"
       style="display:inline;fill:none;stroke-width:0.75;stroke-dasharray:none" />
  </g>
  <g
     id="g149"
     style="display:inline"
     inkscape:label="AT_A_41"
     transform="translate(-543.3748,108.23385)">
    <path
       d="M 893.40266,488.62703 813.20567,391.46496 H 972.33686 V 234.7333 15.189298 H 640.84225 V -107.85885 H 543.7498 v 245.50107 97.09108 253.82274 h 97.09245 v -97.09108 h 47.19288 l 18.46632,22.25196 62.16434,74.91011 H 543.7498 V 734.05711 H 972.33686 V 584.25965 488.62703 Z"
       stroke="#000000"
       stroke-width="3.41295"
       fill-opacity="0"
       id="path93"
       style="display:inline;fill:none;stroke-width:0.75;stroke-dasharray:none" />
    <path
       d="m 737.93515,137.52299 v 0.11923 H 543.7498 l 97.09245,-0.11923 z"
       stroke="#000000"
       stroke-width="3.41295"
       fill-opacity="0"
       id="path94"
       style="display:inline;fill:none;stroke-width:0.75;stroke-dasharray:none" />
  </g>
  <g
     id="g150"
     style="display:inline"
     inkscape:label="AT_A_42"
     transform="translate(-543.3748,108.23385)">
    <path
       d="M 893.39356,488.61611 813.20567,391.46496 H 972.33686 V 234.7333 15.189298 H 640.84225 V -107.85885 H 543.7498 v 245.50107 97.09108 253.82274 h 97.09245 v -97.09108 h 47.19288 l 18.46632,22.25196 62.15524,74.89919 H 543.7498 v 245.441 H 972.33686 V 584.25965 488.61611 Z"
       stroke="#000000"
       stroke-width="3.41295"
       fill-opacity="0"
       id="path95"
       style="display:inline;fill:none;stroke-width:0.75;stroke-dasharray:none" />
    <path
       d="m 737.93515,137.52299 v 0.11923 H 543.7498 l 97.09245,-0.11923 z"
       stroke="#000000"
       stroke-width="3.41295"
       fill-opacity="0"
       id="path96"
       style="display:inline;fill:none;stroke-width:0.75;stroke-dasharray:none" />
  </g>
  <g
     id="g151"
     style="display:inline"
     inkscape:label="AT_A_43"
     transform="translate(-543.3748,108.23385)">
    <path
       d="M 893.38445,488.60519 813.20567,391.46496 H 972.33686 V 234.7333 15.189298 H 640.84225 V -107.85885 H 543.7498 v 245.50107 97.09108 253.82274 h 97.09245 v -97.09108 h 47.19288 l 18.46632,22.25196 62.14614,74.88827 H 543.7498 V 734.05711 H 972.33686 V 584.25965 488.60519 Z"
       stroke="#000000"
       stroke-width="3.41295"
       fill-opacity="0"
       id="path97"
       style="display:inline;fill:none;stroke-width:0.75;stroke-dasharray:none" />
    <path
       d="m 737.93515,137.52299 v 0.11923 H 543.7498 l 97.09245,-0.11923 z"
       stroke="#000000"
       stroke-width="3.41295"
       fill-opacity="0"
       id="path98"
       style="display:inline;fill:none;stroke-width:0.75;stroke-dasharray:none" />
  </g>
  <g
     id="g152"
     style="display:inline"
     inkscape:label="AT_A_44"
     transform="translate(-543.3748,108.23385)">
    <path
       d="M 893.37535,488.59427 813.20567,391.46496 H 972.33686 V 234.7333 15.189298 H 640.84225 V -107.85885 H 543.7498 v 245.50107 97.09108 253.82274 h 97.09245 v -97.09108 h 47.19288 l 18.46632,22.25196 62.13703,74.87735 H 543.7498 V 734.05711 H 972.33686 V 584.25965 488.59427 Z"
       stroke="#000000"
       stroke-width="3.41295"
       fill-opacity="0"
       id="path99"
       style="display:inline;fill:none;stroke-width:0.75;stroke-dasharray:none" />
    <path
       d="m 737.93515,137.52299 v 0.11923 H 543.7498 l 97.09245,-0.11923 z"
       stroke="#000000"
       stroke-width="3.41295"
       fill-opacity="0"
       id="path100"
       style="display:inline;fill:none;stroke-width:0.75;stroke-dasharray:none" />
  </g>
  <g
     id="g153"
     style="display:inline"
     inkscape:label="AT_A_45"
     transform="translate(-543.3748,108.23385)">
    <path
       d="M 893.36625,488.58335 813.20567,391.46496 H 972.33686 V 234.7333 15.189298 H 640.84225 V -107.85885 H 543.7498 v 245.50107 97.09108 253.82274 h 97.09245 v -97.09108 h 47.19288 l 18.46632,22.25196 62.12839,74.86643 H 543.7498 v 245.47376 h 428.58706 v -149.79746 -95.6763 z"
       stroke="#000000"
       stroke-width="3.41295"
       fill-opacity="0"
       id="path101"
       style="display:inline;fill:none;stroke-width:0.75;stroke-dasharray:none" />
  </g>
  <g
     id="g154"
     style="display:inline"
     inkscape:label="AT_A_46"
     transform="translate(-543.3748,108.23385)">
    <path
       d="m 543.7498,488.55604 h 97.09245 v -97.09108 h 47.19288 l 18.46632,22.25196 62.11929,74.8555 z"
       stroke="#000000"
       stroke-width="3.41295"
       fill-opacity="0"
       id="path102"
       style="display:inline;fill:none;stroke-width:0.75;stroke-dasharray:none" />
    <path
       d="m 737.93515,137.52299 v 0.11923 H 543.7498 l 97.09245,-0.11923 z"
       stroke="#000000"
       stroke-width="3.41295"
       fill-opacity="0"
       id="path103"
       style="display:inline;fill:none;stroke-width:0.75;stroke-dasharray:none" />
    <path
       d="M 893.35761,488.57242 813.20567,391.46496 H 972.33686 V 234.7333 15.189298 H 640.84225 V -107.85885 H 543.7498 V 137.64222 234.7333 488.56423 734.05711 H 972.33686 V 584.25965 488.57242 Z"
       stroke="#000000"
       stroke-width="3.41295"
       fill-opacity="0"
       id="path104"
       style="display:inline;fill:none;stroke-width:0.75;stroke-dasharray:none" />
  </g>
  <g
     id="g155"
     style="display:inline"
     inkscape:label="AT_A_47"
     transform="translate(-543.3748,108.23385)">
    <path
       d="m 543.7498,488.55604 h 97.09245 v -97.09108 h 47.19288 l 18.46632,22.25196 62.11019,74.84458 z"
       stroke="#000000"
       stroke-width="3.41295"
       fill-opacity="0"
       id="path105"
       style="display:none;fill:none;stroke-width:0.75;stroke-dasharray:none" />
    <path
       d="m 737.93515,137.52299 v 0.11923 H 543.7498 l 97.09245,-0.11923 z"
       stroke="#000000"
       stroke-width="3.41295"
       fill-opacity="0"
       id="path106"
       style="display:none;fill:none;stroke-width:0.75;stroke-dasharray:none" />
    <path
       d="M 893.3485,488.5615 813.20567,391.46496 H 972.33686 V 234.7333 15.189298 H 640.84225 V -107.85885 H 543.7498 V 137.64222 234.7333 488.55877 734.05711 H 972.33686 V 584.25965 488.5615 Z"
       stroke="#000000"
       stroke-width="3.41295"
       fill-opacity="0"
       id="path107"
       style="display:none;fill:none;stroke-width:0.75;stroke-dasharray:none" />
  </g>
</svg>
