<?xml version="1.0" encoding="UTF-8" standalone="no"?>
<svg
   width="429.56873pt"
   height="785.68903pt"
   viewBox="0 0 429.56873 785.68903"
   overflow="visible"
   version="1.1"
   id="svg89"
   sodipodi:docname="AT_G.svg"
   inkscape:version="1.3.2 (091e20e, 2023-11-25)"
   xmlns:inkscape="http://www.inkscape.org/namespaces/inkscape"
   xmlns:sodipodi="http://sodipodi.sourceforge.net/DTD/sodipodi-0.dtd"
   xmlns="http://www.w3.org/2000/svg"
   xmlns:svg="http://www.w3.org/2000/svg">
  <defs
     id="defs89" />
  <sodipodi:namedview
     id="namedview89"
     pagecolor="#ffffff"
     bordercolor="#000000"
     borderopacity="0.25"
     inkscape:showpageshadow="2"
     inkscape:pageopacity="0.0"
     inkscape:pagecheckerboard="0"
     inkscape:deskcolor="#d1d1d1"
     inkscape:document-units="pt"
     inkscape:zoom="0.44952381"
     inkscape:cx="28.919492"
     inkscape:cy="548.35805"
     inkscape:window-width="1680"
     inkscape:window-height="1050"
     inkscape:window-x="0"
     inkscape:window-y="0"
     inkscape:window-maximized="0"
     inkscape:current-layer="svg89" />
  <g
     id="g91"
     style="display:inline"
     inkscape:label="AT_G_01"
     transform="translate(-421.34378,153.41745)">
    <path
       d="m 421.71895,-153.04245 v 298.41522 486.5238 H 850.53707 V -153.04245 H 421.71895 v 298.41522 486.5238 H 850.53707 V -153.04245 H 421.71895 v 298.41522 486.5238 H 850.53707 V -153.04245 H 421.71895 v 298.41522 486.5238 H 850.53707 V -153.04245 H 421.71895 v 298.41522 486.5238 H 850.53707 V -153.04245 H 421.71895 v 298.41522 486.5238 H 850.53707 V -153.04245 H 421.71895 v 298.41522 486.5238 h 428.81812 v -784.93902 z"
       stroke="#000000"
       stroke-width="3.18129"
       fill-opacity="0"
       id="path1"
       style="display:inline;fill:none;stroke-width:0.75;stroke-dasharray:none" />
  </g>
  <g
     id="g89"
     style="display:inline"
     inkscape:label="AT_G_02"
     transform="translate(-421.34378,153.41745)">
    <path
       d="m 500.92012,405.6062 h -79.20134 l 1.7e-4,226.29037 h 79.20117 z"
       stroke="#000000"
       stroke-width="3.18129"
       fill-opacity="0"
       id="path2"
       style="display:inline;fill:none;stroke-width:0.75;stroke-dasharray:none" />
    <path
       d="m 771.33578,631.89657 h 79.20129 V -153.04245 H 421.71895 v 298.41522 79.20257 h 349.61683 z"
       stroke="#000000"
       stroke-width="3.18129"
       fill-opacity="0"
       id="path3"
       style="display:inline;fill:none;stroke-width:0.75;stroke-dasharray:none" />
    <path
       d="M 771.33578,145.37277 H 500.92012 V -73.840312 H 771.3362 Z"
       stroke="#000000"
       stroke-width="3.18129"
       fill-opacity="0"
       id="path4"
       style="display:inline;fill:none;stroke-width:0.75;stroke-dasharray:none" />
  </g>
  <g
     id="g90"
     style="display:inline"
     inkscape:label="AT_G_03"
     transform="translate(-421.34378,153.41745)">
    <path
       d="m 500.92012,405.6062 h -79.20134 l 1.7e-4,226.29037 h 79.20117 z"
       stroke="#000000"
       stroke-width="3.18129"
       fill-opacity="0"
       id="path5"
       style="display:inline;fill:none;stroke-width:0.75;stroke-dasharray:none" />
    <path
       d="m 771.33578,631.89657 h 79.20129 V -153.04245 H 421.71895 v 298.41522 79.20257 h 349.61683 z"
       stroke="#000000"
       stroke-width="3.18129"
       fill-opacity="0"
       id="path6"
       style="display:inline;fill:none;stroke-width:0.75;stroke-dasharray:none" />
    <path
       d="M 771.33578,145.37277 H 500.92012 V -73.840312 H 771.3362 Z"
       stroke="#000000"
       stroke-width="3.18129"
       fill-opacity="0"
       id="path7"
       style="display:inline;fill:none;stroke-width:0.75;stroke-dasharray:none" />
  </g>
  <g
     id="g92"
     style="display:inline"
     inkscape:label="AT_G_04"
     transform="translate(-421.34378,153.41745)">
    <path
       d="m 500.92012,405.6062 h -79.20134 l 1.7e-4,226.29037 h 79.20117 z"
       stroke="#000000"
       stroke-width="3.18129"
       fill-opacity="0"
       id="path8"
       style="display:inline;fill:none;stroke-width:0.75;stroke-dasharray:none" />
    <path
       d="m 771.33578,631.89657 h 79.20129 V -153.04245 H 421.71895 v 298.41522 79.20257 h 349.61683 z"
       stroke="#000000"
       stroke-width="3.18129"
       fill-opacity="0"
       id="path9"
       style="display:inline;fill:none;stroke-width:0.75;stroke-dasharray:none" />
    <path
       d="M 771.33578,145.37277 H 500.92012 V -73.840312 H 771.3362 Z"
       stroke="#000000"
       stroke-width="3.18129"
       fill-opacity="0"
       id="path10"
       style="display:inline;fill:none;stroke-width:0.75;stroke-dasharray:none" />
  </g>
  <g
     id="g93"
     style="display:inline"
     inkscape:label="AT_G_05"
     transform="translate(-421.34378,153.41745)">
    <path
       d="m 500.92012,405.6062 h -79.20134 l 1.7e-4,226.29037 h 79.20117 z"
       stroke="#000000"
       stroke-width="3.18129"
       fill-opacity="0"
       id="path11"
       style="display:inline;fill:none;stroke-width:0.75;stroke-dasharray:none" />
    <path
       d="m 771.33578,631.89657 h 79.20129 V -153.04245 H 421.71895 v 298.41522 79.20257 h 349.61683 z"
       stroke="#000000"
       stroke-width="3.18129"
       fill-opacity="0"
       id="path12"
       style="display:inline;fill:none;stroke-width:0.75;stroke-dasharray:none" />
    <path
       d="M 771.33578,145.37277 H 500.92012 V -73.840312 H 771.3362 Z"
       stroke="#000000"
       stroke-width="3.18129"
       fill-opacity="0"
       id="path13"
       style="display:inline;fill:none;stroke-width:0.75;stroke-dasharray:none" />
  </g>
  <g
     id="g94"
     style="display:inline"
     inkscape:label="AT_G_06"
     transform="translate(-421.34378,153.41745)">
    <path
       d="m 500.92012,405.6062 h -79.20134 l 1.7e-4,226.29037 h 79.20117 z"
       stroke="#000000"
       stroke-width="3.18129"
       fill-opacity="0"
       id="path14"
       style="display:inline;fill:none;stroke-width:0.75;stroke-dasharray:none" />
    <path
       d="m 771.33578,631.89657 h 79.20129 V -153.04245 H 421.71895 v 298.41522 79.20257 h 349.61683 z"
       stroke="#000000"
       stroke-width="3.18129"
       fill-opacity="0"
       id="path15"
       style="display:inline;fill:none;stroke-width:0.75;stroke-dasharray:none" />
    <path
       d="M 771.33578,145.37277 H 500.92012 V -73.840312 H 771.3362 Z"
       stroke="#000000"
       stroke-width="3.18129"
       fill-opacity="0"
       id="path16"
       style="display:inline;fill:none;stroke-width:0.75;stroke-dasharray:none" />
  </g>
  <g
     id="g95"
     style="display:inline"
     inkscape:label="AT_G_07"
     transform="translate(-421.34378,153.41745)">
    <path
       d="m 500.92012,405.6062 h -79.20134 l 1.7e-4,226.29037 h 79.20117 z"
       stroke="#000000"
       stroke-width="3.18129"
       fill-opacity="0"
       id="path17"
       style="display:inline;fill:none;stroke-width:0.75;stroke-dasharray:none" />
    <path
       d="m 771.33578,631.89657 h 79.20129 V -153.04245 H 421.71895 v 298.41522 79.20257 h 349.61683 z"
       stroke="#000000"
       stroke-width="3.18129"
       fill-opacity="0"
       id="path18"
       style="display:inline;fill:none;stroke-width:0.75;stroke-dasharray:none" />
    <path
       d="M 771.33578,145.37277 H 500.92012 V -73.840312 H 771.3362 Z"
       stroke="#000000"
       stroke-width="3.18129"
       fill-opacity="0"
       id="path19"
       style="display:inline;fill:none;stroke-width:0.75;stroke-dasharray:none" />
  </g>
  <g
     id="g96"
     style="display:inline"
     inkscape:label="AT_G_08"
     transform="translate(-421.34378,153.41745)">
    <path
       d="m 500.92012,405.6062 h -79.20134 l 1.7e-4,226.29037 h 79.20117 z"
       stroke="#000000"
       stroke-width="3.18129"
       fill-opacity="0"
       id="path20"
       style="display:inline;fill:none;stroke-width:0.75;stroke-dasharray:none" />
    <path
       d="m 771.33578,631.89657 h 79.20129 V -153.04245 H 421.71895 v 298.41522 79.20257 h 349.61683 z"
       stroke="#000000"
       stroke-width="3.18129"
       fill-opacity="0"
       id="path21"
       style="display:inline;fill:none;stroke-width:0.75;stroke-dasharray:none" />
    <path
       d="M 771.33578,145.37277 H 500.92012 V -73.840312 H 771.3362 Z"
       stroke="#000000"
       stroke-width="3.18129"
       fill-opacity="0"
       id="path22"
       style="display:inline;fill:none;stroke-width:0.75;stroke-dasharray:none" />
  </g>
  <g
     id="g97"
     style="display:inline"
     inkscape:label="AT_G_09"
     transform="translate(-421.34378,153.41745)">
    <path
       d="m 500.92012,405.6062 h -79.2013 l 1.3e-4,226.29037 h 79.20117 z"
       stroke="#000000"
       stroke-width="3.18129"
       fill-opacity="0"
       id="path23"
       style="display:inline;fill:none;stroke-width:0.75;stroke-dasharray:none" />
    <path
       d="m 771.33578,631.89657 h 79.20129 V -153.04245 H 421.71895 v 298.41522 79.20257 h 349.61683 z"
       stroke="#000000"
       stroke-width="3.18129"
       fill-opacity="0"
       id="path24"
       style="display:inline;fill:none;stroke-width:0.75;stroke-dasharray:none" />
    <path
       d="M 771.33578,145.37277 H 500.92012 V -73.840312 H 771.3362 Z"
       stroke="#000000"
       stroke-width="3.18129"
       fill-opacity="0"
       id="path25"
       style="display:inline;fill:none;stroke-width:0.75;stroke-dasharray:none" />
  </g>
  <g
     id="g98"
     style="display:inline"
     inkscape:label="AT_G_10"
     transform="translate(-421.34378,153.41745)">
    <path
       d="m 500.92012,405.6062 h -79.2013 l 1.3e-4,226.29037 h 79.20117 z"
       stroke="#000000"
       stroke-width="3.18129"
       fill-opacity="0"
       id="path26"
       style="display:inline;fill:none;stroke-width:0.75;stroke-dasharray:none" />
    <path
       d="m 771.33578,631.89657 h 79.20129 V -153.04245 H 421.71895 v 298.41522 79.20257 h 349.61683 z"
       stroke="#000000"
       stroke-width="3.18129"
       fill-opacity="0"
       id="path27"
       style="display:inline;fill:none;stroke-width:0.75;stroke-dasharray:none" />
    <path
       d="M 771.33578,145.37277 H 500.92012 V -73.840312 H 771.3362 Z"
       stroke="#000000"
       stroke-width="3.18129"
       fill-opacity="0"
       id="path28"
       style="display:inline;fill:none;stroke-width:0.75;stroke-dasharray:none" />
  </g>
  <g
     id="g99"
     style="display:inline"
     inkscape:label="AT_G_11"
     transform="translate(-421.34378,153.41745)">
    <path
       d="m 500.92012,405.6062 h -79.2013 l 1.3e-4,226.29037 h 79.20117 z"
       stroke="#000000"
       stroke-width="3.18129"
       fill-opacity="0"
       id="path29"
       style="display:inline;fill:none;stroke-width:0.75;stroke-dasharray:none" />
    <path
       d="m 771.33578,631.89657 h 79.20129 V -153.04245 H 421.71895 v 298.41522 79.20257 h 349.61683 z"
       stroke="#000000"
       stroke-width="3.18129"
       fill-opacity="0"
       id="path30"
       style="display:inline;fill:none;stroke-width:0.75;stroke-dasharray:none" />
    <path
       d="M 771.33578,145.37277 H 500.92012 V -73.840312 H 771.3362 Z"
       stroke="#000000"
       stroke-width="3.18129"
       fill-opacity="0"
       id="path31"
       style="display:inline;fill:none;stroke-width:0.75;stroke-dasharray:none" />
  </g>
  <g
     id="g100"
     style="display:inline"
     inkscape:label="AT_G_12"
     transform="translate(-421.34378,153.41745)">
    <path
       d="m 500.92012,405.6062 h -79.2013 l 1.3e-4,226.29037 h 79.20117 z"
       stroke="#000000"
       stroke-width="3.18129"
       fill-opacity="0"
       id="path32"
       style="display:inline;fill:none;stroke-width:0.75;stroke-dasharray:none" />
    <path
       d="m 771.33578,631.89657 h 79.20129 V -153.04245 H 421.71895 v 298.41522 79.20257 h 349.61683 z"
       stroke="#000000"
       stroke-width="3.18129"
       fill-opacity="0"
       id="path33"
       style="display:inline;fill:none;stroke-width:0.75;stroke-dasharray:none" />
    <path
       d="M 771.33578,145.37277 H 500.92012 V -73.840312 H 771.3362 Z"
       stroke="#000000"
       stroke-width="3.18129"
       fill-opacity="0"
       id="path34"
       style="display:inline;fill:none;stroke-width:0.75;stroke-dasharray:none" />
  </g>
  <g
     id="g101"
     style="display:inline"
     inkscape:label="AT_G_13"
     transform="translate(-421.34378,153.41745)">
    <path
       d="m 500.92012,405.6062 h -79.2013 l 1.3e-4,226.29037 h 79.20117 z"
       stroke="#000000"
       stroke-width="3.18129"
       fill-opacity="0"
       id="path35"
       style="display:inline;fill:none;stroke-width:0.75;stroke-dasharray:none" />
    <path
       d="m 771.33578,631.89657 h 79.20129 V -153.04245 H 421.71895 v 298.41522 79.20257 h 349.61683 z"
       stroke="#000000"
       stroke-width="3.18129"
       fill-opacity="0"
       id="path36"
       style="display:inline;fill:none;stroke-width:0.75;stroke-dasharray:none" />
    <path
       d="M 771.33578,145.37277 H 500.92012 V -73.840312 H 771.3362 Z"
       stroke="#000000"
       stroke-width="3.18129"
       fill-opacity="0"
       id="path37"
       style="display:inline;fill:none;stroke-width:0.75;stroke-dasharray:none" />
  </g>
  <g
     id="g102"
     style="display:inline"
     inkscape:label="AT_G_14"
     transform="translate(-421.34378,153.41745)">
    <path
       d="m 500.92012,405.6062 h -79.20125 l 8e-5,226.29037 h 79.20117 z"
       stroke="#000000"
       stroke-width="3.18129"
       fill-opacity="0"
       id="path38"
       style="display:inline;fill:none;stroke-width:0.75;stroke-dasharray:none" />
    <path
       d="m 771.33578,631.89657 h 79.20129 V -153.04245 H 421.71895 v 298.41522 79.20257 h 349.61683 z"
       stroke="#000000"
       stroke-width="3.18129"
       fill-opacity="0"
       id="path39"
       style="display:inline;fill:none;stroke-width:0.75;stroke-dasharray:none" />
    <path
       d="M 771.33578,145.37277 H 500.92012 V -73.840312 H 771.3362 Z"
       stroke="#000000"
       stroke-width="3.18129"
       fill-opacity="0"
       id="path40"
       style="display:inline;fill:none;stroke-width:0.75;stroke-dasharray:none" />
  </g>
  <g
     id="g103"
     style="display:inline"
     inkscape:label="AT_G_15"
     transform="translate(-421.34378,153.41745)">
    <path
       d="m 500.92012,405.6062 h -79.20125 l 8e-5,226.29037 h 79.20117 z"
       stroke="#000000"
       stroke-width="3.18129"
       fill-opacity="0"
       id="path41"
       style="display:inline;fill:none;stroke-width:0.75;stroke-dasharray:none" />
    <path
       d="m 771.33578,631.89657 h 79.20129 V -153.04245 H 421.71895 v 298.41522 79.20257 h 349.61683 z"
       stroke="#000000"
       stroke-width="3.18129"
       fill-opacity="0"
       id="path42"
       style="display:inline;fill:none;stroke-width:0.75;stroke-dasharray:none" />
    <path
       d="M 771.33578,145.37277 H 500.92012 V -73.840312 H 771.3362 Z"
       stroke="#000000"
       stroke-width="3.18129"
       fill-opacity="0"
       id="path43"
       style="display:inline;fill:none;stroke-width:0.75;stroke-dasharray:none" />
  </g>
  <g
     id="g104"
     style="display:inline"
     inkscape:label="AT_G_16"
     transform="translate(-421.34378,153.41745)">
    <path
       d="m 500.92012,405.6062 h -79.20125 l 8e-5,226.29037 h 79.20117 z"
       stroke="#000000"
       stroke-width="3.18129"
       fill-opacity="0"
       id="path44"
       style="display:inline;fill:none;stroke-width:0.75;stroke-dasharray:none" />
    <path
       d="m 771.33578,631.89657 h 79.20129 V -153.04245 H 421.71895 v 298.41522 79.20257 h 349.61683 z"
       stroke="#000000"
       stroke-width="3.18129"
       fill-opacity="0"
       id="path45"
       style="display:inline;fill:none;stroke-width:0.75;stroke-dasharray:none" />
    <path
       d="M 771.33578,145.37277 H 500.92012 V -73.840312 H 771.3362 Z"
       stroke="#000000"
       stroke-width="3.18129"
       fill-opacity="0"
       id="path46"
       style="display:inline;fill:none;stroke-width:0.75;stroke-dasharray:none" />
  </g>
  <g
     id="g105"
     style="display:inline"
     inkscape:label="AT_G_17"
     transform="translate(-421.34378,153.41745)">
    <path
       d="m 500.92012,405.6062 h -79.20121 l 4e-5,226.29037 h 79.20117 z"
       stroke="#000000"
       stroke-width="3.18129"
       fill-opacity="0"
       id="path47"
       style="display:inline;fill:none;stroke-width:0.75;stroke-dasharray:none" />
    <path
       d="m 771.33578,631.89657 h 79.20129 V -153.04245 H 421.71895 v 298.41522 79.20257 h 349.61683 z"
       stroke="#000000"
       stroke-width="3.18129"
       fill-opacity="0"
       id="path48"
       style="display:inline;fill:none;stroke-width:0.75;stroke-dasharray:none" />
    <path
       d="M 771.33578,145.37277 H 500.92012 V -73.840312 H 771.3362 Z"
       stroke="#000000"
       stroke-width="3.18129"
       fill-opacity="0"
       id="path49"
       style="display:inline;fill:none;stroke-width:0.75;stroke-dasharray:none" />
  </g>
  <g
     id="g106"
     style="display:inline"
     inkscape:label="AT_G_18"
     transform="translate(-421.34378,153.41745)">
    <path
       d="m 500.92012,405.6062 h -79.20121 l 4e-5,226.29037 h 79.20117 z"
       stroke="#000000"
       stroke-width="3.18129"
       fill-opacity="0"
       id="path50"
       style="display:inline;fill:none;stroke-width:0.75;stroke-dasharray:none" />
    <path
       d="m 771.33578,631.89657 h 79.20129 V -153.04245 H 421.71895 v 298.41522 79.20257 h 349.61683 z"
       stroke="#000000"
       stroke-width="3.18129"
       fill-opacity="0"
       id="path51"
       style="display:inline;fill:none;stroke-width:0.75;stroke-dasharray:none" />
    <path
       d="M 771.33578,145.37277 H 500.92012 V -73.840312 H 771.3362 Z"
       stroke="#000000"
       stroke-width="3.18129"
       fill-opacity="0"
       id="path52"
       style="display:inline;fill:none;stroke-width:0.75;stroke-dasharray:none" />
  </g>
  <g
     id="g107"
     style="display:inline"
     inkscape:label="AT_G_19"
     transform="translate(-421.34378,153.41745)">
    <path
       d="m 500.92012,405.6062 h -79.20121 l 4e-5,226.29037 h 79.20117 z"
       stroke="#000000"
       stroke-width="3.18129"
       fill-opacity="0"
       id="path53"
       style="display:inline;fill:none;stroke-width:0.75;stroke-dasharray:none" />
    <path
       d="m 771.33578,631.89657 h 79.20129 V -153.04245 H 421.71895 v 298.41522 79.20257 h 349.61683 z"
       stroke="#000000"
       stroke-width="3.18129"
       fill-opacity="0"
       id="path54"
       style="display:inline;fill:none;stroke-width:0.75;stroke-dasharray:none" />
    <path
       d="M 771.33578,145.37277 H 500.92012 V -73.840312 H 771.3362 Z"
       stroke="#000000"
       stroke-width="3.18129"
       fill-opacity="0"
       id="path55"
       style="display:inline;fill:none;stroke-width:0.75;stroke-dasharray:none" />
  </g>
  <g
     id="g108"
     style="display:inline"
     inkscape:label="AT_G_20"
     transform="translate(-421.34378,153.41745)">
    <path
       d="m 500.92012,405.6062 h -79.20121 l 4e-5,226.29037 h 79.20117 z"
       stroke="#000000"
       stroke-width="3.18129"
       fill-opacity="0"
       id="path56"
       style="display:inline;fill:none;stroke-width:0.75;stroke-dasharray:none" />
    <path
       d="m 771.33578,631.89657 h 79.20129 V -153.04245 H 421.71895 v 298.41522 79.20257 h 349.61683 z"
       stroke="#000000"
       stroke-width="3.18129"
       fill-opacity="0"
       id="path57"
       style="display:inline;fill:none;stroke-width:0.75;stroke-dasharray:none" />
    <path
       d="M 771.33578,145.37277 H 500.92012 V -73.840312 H 771.3362 Z"
       stroke="#000000"
       stroke-width="3.18129"
       fill-opacity="0"
       id="path58"
       style="display:inline;fill:none;stroke-width:0.75;stroke-dasharray:none" />
  </g>
  <g
     id="g109"
     style="display:inline"
     inkscape:label="AT_G_21"
     transform="translate(-421.34378,153.41745)">
    <path
       d="m 500.92012,405.6062 h -79.20121 l 4e-5,226.29037 h 79.20117 z"
       stroke="#000000"
       stroke-width="3.18129"
       fill-opacity="0"
       id="path59"
       style="display:inline;fill:none;stroke-width:0.75;stroke-dasharray:none" />
    <path
       d="m 771.33578,631.89657 h 79.20129 V -153.04245 H 421.71895 v 298.41522 79.20257 h 349.61683 z"
       stroke="#000000"
       stroke-width="3.18129"
       fill-opacity="0"
       id="path60"
       style="display:inline;fill:none;stroke-width:0.75;stroke-dasharray:none" />
    <path
       d="M 771.33578,145.37277 H 500.92012 V -73.840312 H 771.3362 Z"
       stroke="#000000"
       stroke-width="3.18129"
       fill-opacity="0"
       id="path61"
       style="display:inline;fill:none;stroke-width:0.75;stroke-dasharray:none" />
  </g>
  <g
     id="g110"
     style="display:inline"
     inkscape:label="AT_G_22"
     transform="translate(-421.34378,153.41745)">
    <path
       d="m 500.92012,405.6062 h -79.20121 l 4e-5,226.29037 h 79.20117 z"
       stroke="#000000"
       stroke-width="3.18129"
       fill-opacity="0"
       id="path62"
       style="display:inline;fill:none;stroke-width:0.75;stroke-dasharray:none" />
    <path
       d="m 771.33578,631.89657 h 79.20129 V -153.04245 H 421.71895 v 298.41522 79.20257 h 349.61683 z"
       stroke="#000000"
       stroke-width="3.18129"
       fill-opacity="0"
       id="path63"
       style="display:inline;fill:none;stroke-width:0.75;stroke-dasharray:none" />
    <path
       d="M 771.33578,145.37277 H 500.92012 V -73.840312 H 771.3362 Z"
       stroke="#000000"
       stroke-width="3.18129"
       fill-opacity="0"
       id="path64"
       style="display:inline;fill:none;stroke-width:0.75;stroke-dasharray:none" />
  </g>
  <g
     id="g111"
     style="display:inline"
     inkscape:label="AT_G_23"
     transform="translate(-421.34378,153.41745)">
    <path
       d="m 500.92012,405.6062 h -79.20121 l 4e-5,226.29037 h 79.20117 z"
       stroke="#000000"
       stroke-width="3.18129"
       fill-opacity="0"
       id="path65"
       style="display:inline;fill:none;stroke-width:0.75;stroke-dasharray:none" />
    <path
       d="m 771.33578,631.89657 h 79.20129 V -153.04245 H 421.71895 v 298.41522 79.20257 h 349.61683 z"
       stroke="#000000"
       stroke-width="3.18129"
       fill-opacity="0"
       id="path66"
       style="display:inline;fill:none;stroke-width:0.75;stroke-dasharray:none" />
    <path
       d="M 771.33578,145.37277 H 500.92012 V -73.840312 H 771.3362 Z"
       stroke="#000000"
       stroke-width="3.18129"
       fill-opacity="0"
       id="path67"
       style="display:inline;fill:none;stroke-width:0.75;stroke-dasharray:none" />
  </g>
  <g
     id="g112"
     style="display:inline"
     inkscape:label="AT_G_24"
     transform="translate(-421.34378,153.41745)">
    <path
       d="m 500.92012,405.6062 h -79.20121 l 4e-5,226.29037 h 79.20117 z"
       stroke="#000000"
       stroke-width="3.18129"
       fill-opacity="0"
       id="path68"
       style="display:inline;fill:none;stroke-width:0.75;stroke-dasharray:none" />
    <path
       d="m 771.33578,631.89657 h 79.20129 V -153.04245 H 421.71895 v 298.41522 h 79.20117 V -73.840312 H 771.3362 l -4.2e-4,219.213082 H 580.12099 v 79.20257 h 191.21479 z"
       stroke="#000000"
       stroke-width="3.18129"
       fill-opacity="0"
       id="path69"
       style="display:inline;fill:none;stroke-width:0.75;stroke-dasharray:none" />
    <path
       d="m 500.92012,405.6062 h -79.20121 l 4e-5,226.29037 h 79.20117 z"
       stroke="#000000"
       stroke-width="3.18129"
       fill-opacity="0"
       id="path70"
       style="display:inline;fill:none;stroke-width:0.75;stroke-dasharray:none" />
  </g>
  <g
     id="g113"
     style="display:inline"
     inkscape:label="AT_G_25"
     transform="translate(-421.34378,153.41745)">
    <path
       d="m 771.33578,631.89657 h 79.20129 V -153.04245 H 421.71895 v 298.41522 h 79.20117 V -73.840312 H 771.3362 l -4.2e-4,219.213082 H 580.12099 v 79.20257 h 191.21479 z"
       stroke="#000000"
       stroke-width="3.18129"
       fill-opacity="0"
       id="path71"
       style="display:inline;fill:none;stroke-width:0.75;stroke-dasharray:none" />
    <path
       d="m 500.92012,405.6062 h -79.20121 l 4e-5,226.29037 h 79.20117 z"
       stroke="#000000"
       stroke-width="3.18129"
       fill-opacity="0"
       id="path72"
       style="display:inline;fill:none;stroke-width:0.75;stroke-dasharray:none" />
  </g>
  <g
     id="g114"
     style="display:inline"
     inkscape:label="AT_G_26"
     transform="translate(-421.34378,153.41745)">
    <path
       d="m 771.33578,631.89657 h 79.20129 V -153.04245 H 421.71895 v 298.41522 h 79.20117 V -73.840312 H 771.3362 l -4.2e-4,219.213082 H 580.12099 v 79.20257 h 191.21479 z"
       stroke="#000000"
       stroke-width="3.18129"
       fill-opacity="0"
       id="path73"
       style="display:inline;fill:none;stroke-width:0.75;stroke-dasharray:none" />
    <path
       d="m 500.92012,405.6062 h -79.20121 l 4e-5,226.29037 h 79.20117 z"
       stroke="#000000"
       stroke-width="3.18129"
       fill-opacity="0"
       id="path74"
       style="display:inline;fill:none;stroke-width:0.75;stroke-dasharray:none" />
  </g>
  <g
     id="g115"
     style="display:inline"
     inkscape:label="AT_G_27"
     transform="translate(-421.34378,153.41745)">
    <path
       d="m 771.33578,631.89657 h 79.20129 V -153.04245 H 421.71895 v 298.41522 h 79.20117 V -73.840312 H 771.3362 l -4.2e-4,219.213082 H 580.12099 v 79.20257 h 191.21479 z"
       stroke="#000000"
       stroke-width="3.18129"
       fill-opacity="0"
       id="path75"
       style="display:inline;fill:none;stroke-width:0.75;stroke-dasharray:none" />
    <path
       d="m 500.92012,405.6062 h -79.20117 v 226.29037 h 79.20117 z"
       stroke="#000000"
       stroke-width="3.18129"
       fill-opacity="0"
       id="path76"
       style="display:inline;fill:none;stroke-width:0.75;stroke-dasharray:none" />
  </g>
  <g
     id="g116"
     style="display:inline"
     inkscape:label="AT_G_28"
     transform="translate(-421.34378,153.41745)">
    <path
       d="m 771.33578,631.89657 h 79.20129 V -153.04245 H 421.71895 v 298.41522 h 79.20117 V -73.840312 H 771.3362 l -4.2e-4,219.213082 H 580.12099 v 79.20257 h 191.21479 z"
       stroke="#000000"
       stroke-width="3.18129"
       fill-opacity="0"
       id="path77"
       style="display:inline;fill:none;stroke-width:0.75;stroke-dasharray:none" />
    <path
       d="m 500.92012,405.6062 h -79.20117 v 226.29037 h 79.20117 z"
       stroke="#000000"
       stroke-width="3.18129"
       fill-opacity="0"
       id="path78"
       style="display:inline;fill:none;stroke-width:0.75;stroke-dasharray:none" />
  </g>
  <g
     id="g117"
     style="display:inline"
     inkscape:label="AT_G_29"
     transform="translate(-421.34378,153.41745)">
    <path
       d="m 771.33578,631.89657 h 79.20129 V -153.04245 H 421.71895 v 298.41522 h 79.20117 V -73.840312 H 771.3362 l -4.2e-4,219.213082 H 580.12099 v 79.20257 h 191.21479 z"
       stroke="#000000"
       stroke-width="3.18129"
       fill-opacity="0"
       id="path79"
       style="display:inline;fill:none;stroke-width:0.75;stroke-dasharray:none" />
    <path
       d="m 500.92012,405.6062 h -79.20117 v 226.29037 h 79.20117 z"
       stroke="#000000"
       stroke-width="3.18129"
       fill-opacity="0"
       id="path80"
       style="display:inline;fill:none;stroke-width:0.75;stroke-dasharray:none" />
  </g>
  <g
     id="g118"
     style="display:inline"
     inkscape:label="AT_G_30"
     transform="translate(-421.34378,153.41745)">
    <path
       d="m 771.33578,631.89657 h 79.20129 V -153.04245 H 421.71895 v 298.41522 h 79.20117 V -73.840312 H 771.3362 l -4.2e-4,219.213082 H 580.12099 v 79.20257 h 191.21479 z"
       stroke="#000000"
       stroke-width="3.18129"
       fill-opacity="0"
       id="path81"
       style="display:inline;fill:none;stroke-width:0.75;stroke-dasharray:none" />
    <path
       d="m 500.92012,405.6062 h -79.20117 v 226.29037 h 79.20117 z"
       stroke="#000000"
       stroke-width="3.18129"
       fill-opacity="0"
       id="path82"
       style="display:inline;fill:none;stroke-width:0.75;stroke-dasharray:none" />
  </g>
  <g
     id="g119"
     style="display:inline"
     inkscape:label="AT_G_31"
     transform="translate(-421.34378,153.41745)">
    <path
       d="m 771.33578,631.89657 h 79.20129 V -153.04245 H 421.71895 v 298.41522 h 79.20117 V -73.840312 H 771.3362 l -4.2e-4,219.213082 H 580.12099 v 79.20257 h 191.21479 z"
       stroke="#000000"
       stroke-width="3.18129"
       fill-opacity="0"
       id="path83"
       style="display:inline;fill:none;stroke-width:0.75;stroke-dasharray:none" />
    <path
       d="m 500.92012,405.6062 h -79.20117 v 226.29037 h 79.20117 z"
       stroke="#000000"
       stroke-width="3.18129"
       fill-opacity="0"
       id="path84"
       style="display:inline;fill:none;stroke-width:0.75;stroke-dasharray:none" />
  </g>
  <g
     id="g120"
     style="display:inline"
     inkscape:label="AT_G_32"
     transform="translate(-421.34378,153.41745)">
    <path
       d="M 771.33578,224.57534 V 405.6062 H 421.71895 V 631.89657 H 850.53707 V -153.04245 H 421.71895 v 298.41522 h 158.40204 v 79.20257 H 771.33578 V 405.6062 H 421.71895 V 631.89657 H 850.53707 V -153.04245 H 421.71895 v 298.41522 h 158.40204 v 79.20257 H 771.33578 V 405.6062 H 421.71895 V 631.89657 H 850.53707 V -153.04245 H 421.71895 v 298.41522 h 158.40204 v 79.20257 H 771.33578 V 405.6062 H 421.71895 V 631.89657 H 850.53707 V -153.04245 H 421.71895 v 298.41522 h 158.40204 v 79.20257 H 771.33578 V 405.6062 H 421.71895 V 631.89657 H 850.53707 V -153.04245 H 421.71895 v 298.41522 h 158.40204 v 79.20257 H 771.33578 V 405.6062 H 421.71895 V 631.89657 H 850.53707 V -153.04245 H 421.71895 v 298.41522 h 158.40204 v 79.20257 H 771.33578 V 405.6062 H 421.71895 V 631.89657 H 850.53707 V -153.04245 H 421.71895 v 298.41522 h 158.40204 v 79.20257 H 771.33578 V 405.6062 H 421.71895 V 631.89657 H 850.53707 V -153.04245 H 421.71895 v 298.41522 h 158.40204 v 79.20257 z"
       stroke="#000000"
       stroke-width="3.18129"
       fill-opacity="0"
       id="path86"
       style="display:inline;fill:none;stroke-width:0.75;stroke-dasharray:none" />
  </g>
  <g
     id="g121"
     style="display:inline"
     inkscape:label="AT_G_33"
     transform="translate(-421.34378,153.41745)">
    <path
       d="M 850.53707,405.6062 H 771.33578 421.71895 V 631.89657 H 850.53707 L 850.5375,405.6062 V 145.37277 l -4.3e-4,-298.41522 H 421.71895 v 298.41522 h 158.40204 270.41608"
       stroke="#000000"
       stroke-width="3.18129"
       fill-opacity="0"
       id="path87"
       style="display:inline;fill:none;stroke-width:0.75;stroke-dasharray:none" />
    <path
       d="m 580.12099,145.37277 v 79.20257 H 771.33578 V 405.6062"
       stroke="#000000"
       stroke-width="3.18129"
       fill-opacity="0"
       id="path88"
       style="display:inline;fill:none;stroke-width:0.75;stroke-dasharray:none" />
  </g>
  <g
     id="g122"
     style="display:inline"
     inkscape:label="AT_G_34"
     transform="translate(-421.34378,153.41745)">
    <path
       d="m 421.71895,-153.04245 v 298.41522 486.5238 H 850.53707 V -153.04245 H 421.71895 v 298.41522 486.5238 h 428.81812 v -784.93902 z"
       stroke="#000000"
       stroke-width="3.18129"
       fill-opacity="0"
       id="path89"
       style="display:inline;fill:none;stroke-width:0.75;stroke-dasharray:none" />
  </g>
</svg>
